<?xml version="1.0" standalone="no"?>
<!DOCTYPE svg PUBLIC "-//W3C//DTD SVG 20010904//EN"
 "http://www.w3.org/TR/2001/REC-SVG-20010904/DTD/svg10.dtd">
<svg version="1.0" xmlns="http://www.w3.org/2000/svg"
 width="201.000000pt" height="201.000000pt" viewBox="0 0 201.000000 201.000000"
 preserveAspectRatio="xMidYMid meet">
<metadata>
Created by potrace 1.11, written by Peter Selinger 2001-2013
</metadata>
<g transform="translate(0.000000,201.000000) scale(0.100000,-0.100000)"
fill="#000000" stroke="none">
<path d="M584 1995 c-184 -39 -355 -154 -461 -311 -44 -64 -63 -104 -96 -199
-21 -58 -21 -79 -25 -767 -2 -572 0 -708 10 -709 17 -1 419 -1 436 0 9 1 12
126 12 589 0 351 4 604 10 630 18 75 52 135 115 197 97 98 179 126 360 126
139 0 201 -12 292 -56 289 -142 396 -507 225 -771 -73 -112 -179 -192 -312
-235 -52 -17 -97 -22 -224 -25 -88 -2 -161 -6 -164 -9 -11 -10 -5 -437 5 -443
14 -9 280 -7 353 2 328 40 627 252 777 551 31 60 79 201 89 259 10 56 13 280
4 331 -15 87 -17 99 -40 165 -83 251 -267 462 -510 585 -53 27 -220 88 -220
80 0 -2 -15 1 -32 7 -51 16 -530 18 -604 3z"/>
<path d="M957 1254 c-1 -1 -17 -5 -36 -7 -51 -8 -112 -56 -139 -109 -22 -42
-24 -58 -24 -190 0 -78 0 -152 1 -163 1 -19 7 -20 139 -19 156 1 204 12 260
59 72 62 101 158 74 250 -29 100 -117 170 -225 178 -26 2 -48 2 -50 1z"/>
</g>
</svg>
