<?xml version="1.0" encoding="utf-8"?>
<!-- Generator: Adobe Illustrator 21.0.2, SVG Export Plug-In . SVG Version: 6.00 Build 0)  -->
<svg version="1.1" id="OBJECTS" xmlns="http://www.w3.org/2000/svg" xmlns:xlink="http://www.w3.org/1999/xlink" x="0px" y="0px"
	 viewBox="0 0 411.5 87.5" style="enable-background:new 0 0 411.5 87.5;" xml:space="preserve">
<style type="text/css">
	.st0{fill-rule:evenodd;clip-rule:evenodd;fill:#6699CC;}
	.st1{fill-rule:evenodd;clip-rule:evenodd;fill:none;}
	.st2{fill:#6699CC;}
	.st3{font-family:'Comfortaa-Bold';}
	.st4{font-size:47.8257px;}
</style>
<g>
	<path class="st0" d="M37.7,45.6v5.9l7.4,0c3.6,0,6.9-2.3,7.8-5.8c1.3-5-2.6-9.7-7.5-9.7h-1.1c-3.6,0-6.6,3-6.6,6.6V45.6L37.7,45.6z
		 M36.7,11.9h8.7c17.5,0,31.9,14.4,31.9,31.9v0c0,17.5-14.4,31.9-31.9,31.9h-7.7V61.2l7.2,0c8.9,0,16.7-6.4,17.8-15.2
		c1.3-10.5-7-19.6-17.2-19.6h-4.1c-7.3,0-13.3,6-13.3,13.3v6v15.5v14.5H13.5V35.1C13.5,22.3,24,11.9,36.7,11.9z"/>
</g>
<rect x="87.3" y="22.4" class="st1" width="349.2" height="53.2"/>
<text transform="matrix(1 0 0 1 87.2951 59.7921)" class="st2 st3 st4">daryproduct</text>
</svg>
