<?xml version="1.0" encoding="utf-8"?>
<!-- Generator: Adobe Illustrator 21.0.2, SVG Export Plug-In . SVG Version: 6.00 Build 0)  -->
<svg version="1.1" id="OBJECTS" xmlns="http://www.w3.org/2000/svg" xmlns:xlink="http://www.w3.org/1999/xlink" x="0px" y="0px"
	 viewBox="0 0 411.5 87.5" style="enable-background:new 0 0 411.5 87.5;" xml:space="preserve">
<style type="text/css">
	.st0{fill:#6699CC;}
	.st1{fill:none;}
	.st2{enable-background:new    ;}
</style>
<g>
	<path class="st0" d="M37.7,45.6v5.9h7.4c3.6,0,6.9-2.3,7.8-5.8c1.3-5-2.6-9.7-7.5-9.7h-1.1c-3.6,0-6.6,3-6.6,6.6L37.7,45.6
		L37.7,45.6z M36.7,11.9h8.7c17.5,0,31.9,14.4,31.9,31.9l0,0c0,17.5-14.4,31.9-31.9,31.9h-7.7V61.2h7.2c8.9,0,16.7-6.4,17.8-15.2
		c1.3-10.5-7-19.6-17.2-19.6h-4.1c-7.3,0-13.3,6-13.3,13.3v6v15.5v14.5H13.5V35.1C13.5,22.3,24,11.9,36.7,11.9z"/>
</g>
<rect x="87.3" y="22.4" class="st1" width="349.2" height="53.2"/>
<g class="st2">
	<path class="st0" d="M115.9,23.1c0.4,0.4,0.7,1,0.7,1.8v21.8c0,2.5-0.6,4.7-1.7,6.8c-1.2,2-2.7,3.6-4.7,4.8c-2,1.2-4.2,1.7-6.7,1.7
		c-2.5,0-4.7-0.6-6.7-1.7c-2-1.2-3.6-2.8-4.8-4.8c-1.1-2-1.7-4.3-1.7-6.8c0-2.5,0.5-4.7,1.6-6.8c1.1-2,2.5-3.6,4.4-4.8
		c1.9-1.1,3.9-1.7,6.2-1.7c1.8,0,3.6,0.4,5.2,1.1s2.9,1.8,4.1,3.2V24.9c0-0.7,0.2-1.3,0.7-1.8c0.5-0.4,1-0.7,1.7-0.7
		C114.9,22.4,115.5,22.7,115.9,23.1z M107.8,54.5c1.3-0.8,2.3-1.9,3-3.2c0.7-1.4,1.1-2.9,1.1-4.6c0-1.7-0.4-3.2-1.1-4.6
		c-0.7-1.4-1.7-2.4-3-3.2c-1.3-0.8-2.7-1.2-4.3-1.2c-1.6,0-3,0.4-4.3,1.2c-1.3,0.8-2.3,1.8-3.1,3.2c-0.7,1.4-1.1,2.9-1.1,4.6
		c0,1.7,0.4,3.2,1.1,4.6c0.7,1.4,1.8,2.4,3.1,3.2c1.3,0.8,2.7,1.2,4.3,1.2C105.1,55.7,106.5,55.3,107.8,54.5z"/>
	<path class="st0" d="M143.8,35.2c2,1.2,3.6,2.8,4.7,4.8c1.2,2,1.7,4.3,1.7,6.8v10.7c0,0.7-0.2,1.3-0.7,1.7c-0.5,0.5-1,0.7-1.7,0.7
		c-0.7,0-1.3-0.2-1.7-0.7c-0.5-0.5-0.7-1-0.7-1.7v-1.8c-1.1,1.4-2.5,2.4-4.1,3.2c-1.6,0.8-3.3,1.1-5.2,1.1c-2.3,0-4.4-0.6-6.2-1.7
		c-1.9-1.1-3.3-2.7-4.4-4.8c-1.1-2-1.6-4.3-1.6-6.8c0-2.5,0.6-4.7,1.7-6.8c1.1-2,2.7-3.6,4.8-4.8c2-1.2,4.3-1.7,6.7-1.7
		C139.5,33.4,141.8,34,143.8,35.2z M141.4,54.5c1.3-0.8,2.3-1.8,3-3.2c0.7-1.4,1.1-2.9,1.1-4.6c0-1.7-0.4-3.2-1.1-4.6
		c-0.7-1.4-1.7-2.4-3-3.2c-1.3-0.8-2.7-1.2-4.3-1.2c-1.6,0-3,0.4-4.3,1.2c-1.3,0.8-2.3,1.9-3.1,3.2c-0.7,1.4-1.1,2.9-1.1,4.6
		c0,1.7,0.4,3.2,1.1,4.6c0.7,1.4,1.8,2.4,3.1,3.2c1.3,0.8,2.7,1.2,4.3,1.2C138.7,55.7,140.1,55.3,141.4,54.5z"/>
	<path class="st0" d="M174.3,34.1c1,0.5,1.4,1.1,1.4,1.9c0,0.2,0,0.4,0,0.5c-0.3,1-0.9,1.5-1.9,1.5c-0.2,0-0.4,0-0.7-0.1
		c-1.3-0.2-2.3-0.3-3.1-0.3c-2.3,0-4.1,0.5-5.5,1.6c-1.4,1.1-2.1,2.5-2.1,4.3v14c0,0.8-0.2,1.4-0.6,1.8c-0.4,0.4-1,0.6-1.8,0.6
		c-0.8,0-1.4-0.2-1.8-0.6c-0.4-0.4-0.6-1-0.6-1.8V36c0-0.8,0.2-1.4,0.6-1.8c0.4-0.4,1-0.6,1.8-0.6c1.6,0,2.4,0.8,2.4,2.4v0.9
		c1-1.1,2.1-2,3.5-2.6c1.4-0.6,2.9-1,4.5-1C172,33.3,173.3,33.6,174.3,34.1z"/>
	<path class="st0" d="M202.2,35.7c0,0.3-0.1,0.7-0.3,1.1l-14.6,32.9c-0.4,1-1,1.5-1.9,1.5c-0.3,0-0.7-0.1-1.1-0.3
		c-1-0.4-1.4-1-1.4-1.9c0-0.4,0.1-0.8,0.3-1.1l4.8-10.8l-10.8-20.4c-0.2-0.3-0.2-0.6-0.2-1c0-0.4,0.1-0.8,0.4-1.1
		c0.3-0.4,0.6-0.6,1-0.8c0.3-0.1,0.6-0.2,1-0.2c0.9,0,1.6,0.4,2,1.3l8.8,17.4l7.7-17.4c0.4-0.9,1-1.4,1.9-1.4c0.4,0,0.8,0.1,1.1,0.2
		C201.7,34.3,202.2,34.9,202.2,35.7z"/>
	<path class="st0" d="M226.4,35.2c2,1.2,3.6,2.8,4.8,4.8c1.1,2,1.7,4.3,1.7,6.8c0,2.5-0.5,4.7-1.6,6.8c-1.1,2-2.5,3.6-4.4,4.8
		c-1.9,1.1-3.9,1.7-6.2,1.7c-1.8,0-3.6-0.4-5.2-1.1c-1.6-0.8-2.9-1.8-4.1-3.2v12.9c0,0.7-0.2,1.3-0.7,1.8c-0.4,0.4-1,0.7-1.8,0.7
		c-0.7,0-1.3-0.2-1.7-0.7c-0.5-0.4-0.7-1-0.7-1.8V46.7c0-2.5,0.6-4.7,1.7-6.8c1.2-2,2.7-3.6,4.7-4.8c2-1.2,4.2-1.7,6.7-1.7
		C222.1,33.4,224.4,34,226.4,35.2z M224,54.5c1.3-0.8,2.3-1.8,3.1-3.2c0.7-1.4,1.1-2.9,1.1-4.6c0-1.7-0.4-3.2-1.1-4.6
		c-0.8-1.4-1.8-2.4-3.1-3.2c-1.3-0.8-2.7-1.2-4.3-1.2c-1.6,0-3,0.4-4.3,1.2c-1.3,0.8-2.3,1.9-3,3.2c-0.7,1.4-1.1,2.9-1.1,4.6
		c0,1.7,0.4,3.2,1.1,4.6c0.7,1.4,1.7,2.4,3,3.2c1.3,0.8,2.7,1.2,4.3,1.2C221.3,55.7,222.7,55.3,224,54.5z"/>
	<path class="st0" d="M256.9,34.1c1,0.5,1.4,1.1,1.4,1.9c0,0.2,0,0.4,0,0.5c-0.3,1-0.9,1.5-1.9,1.5c-0.2,0-0.4,0-0.7-0.1
		c-1.3-0.2-2.3-0.3-3.1-0.3c-2.3,0-4.1,0.5-5.5,1.6c-1.4,1.1-2.1,2.5-2.1,4.3v14c0,0.8-0.2,1.4-0.6,1.8c-0.4,0.4-1,0.6-1.8,0.6
		c-0.8,0-1.4-0.2-1.8-0.6c-0.4-0.4-0.6-1-0.6-1.8V36c0-0.8,0.2-1.4,0.6-1.8c0.4-0.4,1-0.6,1.8-0.6c1.6,0,2.4,0.8,2.4,2.4v0.9
		c1-1.1,2.1-2,3.5-2.6c1.4-0.6,2.9-1,4.5-1C254.7,33.3,256,33.6,256.9,34.1z"/>
	<path class="st0" d="M280.1,35.1c2,1.1,3.6,2.7,4.7,4.7s1.7,4.3,1.7,6.9c0,2.6-0.6,4.8-1.7,6.8c-1.1,2-2.7,3.6-4.7,4.7
		c-2,1.1-4.3,1.7-6.8,1.7s-4.8-0.6-6.8-1.7c-2-1.1-3.6-2.7-4.7-4.7c-1.1-2-1.7-4.3-1.7-6.8c0-2.6,0.6-4.9,1.7-6.9
		c1.1-2,2.7-3.6,4.7-4.7c2-1.1,4.3-1.7,6.8-1.7C275.9,33.4,278.1,34,280.1,35.1z M269,38.9c-1.3,0.8-2.3,1.8-3,3.2s-1.1,2.9-1.1,4.6
		s0.4,3.3,1.1,4.6c0.7,1.4,1.7,2.4,3,3.2c1.3,0.8,2.8,1.1,4.4,1.1s3.1-0.4,4.4-1.1c1.3-0.8,2.3-1.8,3-3.2c0.7-1.4,1.1-2.9,1.1-4.6
		s-0.4-3.3-1.1-4.6c-0.7-1.4-1.7-2.4-3-3.2c-1.3-0.8-2.8-1.1-4.4-1.1S270.2,38.1,269,38.9z"/>
	<path class="st0" d="M318.1,23.1c0.4,0.4,0.7,1,0.7,1.8v21.8c0,2.5-0.6,4.7-1.7,6.8c-1.2,2-2.7,3.6-4.7,4.8c-2,1.2-4.2,1.7-6.7,1.7
		c-2.5,0-4.7-0.6-6.7-1.7c-2-1.2-3.6-2.8-4.8-4.8c-1.1-2-1.7-4.3-1.7-6.8c0-2.5,0.5-4.7,1.6-6.8c1.1-2,2.5-3.6,4.4-4.8
		c1.9-1.1,3.9-1.7,6.2-1.7c1.8,0,3.6,0.4,5.2,1.1c1.6,0.8,2.9,1.8,4.1,3.2V24.9c0-0.7,0.2-1.3,0.7-1.8c0.5-0.4,1-0.7,1.7-0.7
		C317.1,22.4,317.7,22.7,318.1,23.1z M309.9,54.5c1.3-0.8,2.3-1.9,3-3.2c0.7-1.4,1.1-2.9,1.1-4.6c0-1.7-0.4-3.2-1.1-4.6
		c-0.7-1.4-1.7-2.4-3-3.2s-2.7-1.2-4.3-1.2c-1.6,0-3,0.4-4.3,1.2c-1.3,0.8-2.3,1.8-3.1,3.2c-0.7,1.4-1.1,2.9-1.1,4.6
		c0,1.7,0.4,3.2,1.1,4.6s1.8,2.4,3.1,3.2c1.3,0.8,2.7,1.2,4.3,1.2C307.2,55.7,308.7,55.3,309.9,54.5z"/>
	<path class="st0" d="M350.7,34.3c0.4,0.4,0.7,1,0.7,1.8v21.3c0,0.7-0.2,1.3-0.7,1.7c-0.4,0.5-1,0.7-1.8,0.7c-0.7,0-1.3-0.2-1.7-0.7
		c-0.5-0.5-0.7-1-0.7-1.7v-0.5c-1,1-2.2,1.8-3.6,2.4c-1.4,0.6-2.9,0.8-4.5,0.8c-2.2,0-4.2-0.5-5.9-1.4c-1.8-1-3.1-2.4-4.1-4.2
		c-1-1.8-1.5-4-1.5-6.6V36c0-0.7,0.2-1.3,0.7-1.7c0.5-0.5,1-0.7,1.7-0.7s1.3,0.2,1.7,0.7c0.5,0.5,0.7,1,0.7,1.7v11.8
		c0,2.6,0.7,4.5,2.1,5.9c1.4,1.3,3.2,2,5.5,2c1.3,0,2.6-0.3,3.7-0.8c1.1-0.5,2-1.3,2.6-2.2c0.6-0.9,0.9-2,0.9-3.1V36
		c0-0.7,0.2-1.3,0.7-1.8c0.5-0.4,1-0.7,1.7-0.7C349.7,33.6,350.3,33.8,350.7,34.3z"/>
	<path class="st0" d="M381,37.7c0.3,0.4,0.5,0.8,0.5,1.2c0,0.7-0.4,1.3-1.1,1.8c-0.3,0.2-0.7,0.3-1.1,0.3c-0.7,0-1.4-0.3-1.9-0.9
		c-0.8-0.9-1.7-1.5-2.6-1.9c-0.9-0.4-2-0.6-3.2-0.6c-2.5,0-4.4,0.8-6,2.5c-1.5,1.6-2.3,3.8-2.3,6.5c0,1.7,0.4,3.3,1.1,4.6
		c0.7,1.4,1.7,2.4,3,3.2c1.3,0.8,2.8,1.1,4.4,1.1c2.2,0,3.9-0.6,5.3-1.7c0.6-0.4,1.2-0.7,1.8-0.7c0.4,0,0.9,0.1,1.2,0.4
		c0.6,0.5,0.9,1.1,0.9,1.7c0,0.5-0.2,0.9-0.6,1.3c-2.3,2.1-5.2,3.2-8.6,3.2c-2.5,0-4.8-0.6-6.8-1.7c-2-1.1-3.6-2.7-4.7-4.8
		c-1.1-2-1.7-4.3-1.7-6.8c0-2.5,0.5-4.8,1.6-6.9c1.1-2,2.6-3.6,4.6-4.7c2-1.1,4.2-1.7,6.7-1.7C375.4,33.4,378.5,34.9,381,37.7z"/>
	<path class="st0" d="M401.3,55.7c0.4,0.4,0.6,1,0.6,1.7c0,0.7-0.3,1.3-0.8,1.7c-0.5,0.4-1.2,0.7-2,0.7h-0.9c-1.6,0-3-0.4-4.3-1.2
		c-1.3-0.8-2.3-1.9-3-3.3c-0.7-1.4-1.1-3-1.1-4.7V38.7h-2.2c-0.7,0-1.2-0.2-1.6-0.6s-0.6-0.9-0.6-1.4c0-0.6,0.2-1.1,0.6-1.5
		c0.4-0.4,1-0.6,1.6-0.6h2.2v-6.9c0-0.7,0.2-1.3,0.7-1.7c0.4-0.4,1-0.7,1.7-0.7c0.7,0,1.3,0.2,1.7,0.7c0.4,0.4,0.7,1,0.7,1.7v6.9
		h4.1c0.7,0,1.2,0.2,1.6,0.6c0.4,0.4,0.6,0.9,0.6,1.5c0,0.6-0.2,1.1-0.6,1.4s-1,0.6-1.6,0.6h-4.1v11.8c0,1.3,0.3,2.3,1.1,3.2
		c0.7,0.9,1.6,1.3,2.6,1.3h1.6C400.5,55,400.9,55.2,401.3,55.7z"/>
</g>
</svg>
